<svg width="120" height="45" viewBox="0 0 120 45" fill="none" xmlns="http://www.w3.org/2000/svg">
<path fill-rule="evenodd" clip-rule="evenodd" d="M84.0692 38.4283C85.0609 38.4938 86.1025 38.4268 87.0922 38.4268L87.094 23.4363C90.7096 36.6301 87.094 23.4363 90.7096 36.6301C91.3375 38.8868 90.5647 38.4445 93.8676 38.4506L94.6766 38.4231L94.6766 17.292H91.6429L91.5874 29.6522C88.3058 17.292 91.5874 29.6522 88.3058 17.292H84.0586L84.0692 38.4283Z" fill="#F8720A"/>
<path fill-rule="evenodd" clip-rule="evenodd" d="M7.64996 36.0486C8.84345 36.1188 9.867 36.4835 11.3538 36.4387C12.5769 36.4018 13.7236 36.178 14.7679 35.7751C17.1314 34.8632 17.9591 33.8495 19.2731 32.086C19.4301 33.1645 18.3642 34.467 17.8828 34.8409C15.9903 36.3105 13.6738 36.9078 11.1492 36.7998C9.03946 36.7096 8.53529 36.2152 7.64996 36.0486ZM2.06298 18.0854C4.15297 21.8151 9.2181 22.9804 12.893 25.5604C13.301 25.8469 13.5176 26.0429 13.8827 26.3901C14.9303 27.3865 15.3709 29.2607 14.5893 30.3381C14.2959 30.8887 14.0657 31.2329 13.48 31.6546C11.7616 32.8916 9.263 32.4655 7.55289 31.8115C6.41943 31.378 5.35492 30.7105 4.50006 30.0104C3.81862 29.4523 2.43752 28.2379 2.04993 27.5054C1.08811 28.0144 0.231743 28.6623 0.00440277 29.9324C-0.168005 33.5622 4.76029 36.6247 8.24277 37.2895C11.6399 37.938 16.6352 37.8556 19.0719 35.1224C19.3356 34.8265 19.6873 34.2649 19.9489 33.998C20.6556 33.0642 20.8091 31.0871 20.7575 29.9331C20.6465 27.4547 17.9828 25.5142 16.0373 24.4394L11.9268 22.1791C11.5885 21.9975 11.3851 21.9137 11.0695 21.7219C9.14483 20.5517 6.42903 19.386 4.64718 17.9307C3.74331 17.1925 2.80555 16.3726 2.02452 15.4971C1.69653 15.1295 1.20564 14.1513 0.937566 13.9549C0.937566 15.2692 1.43014 16.9561 2.06298 18.0854Z" fill="#F8720A"/>
<path fill-rule="evenodd" clip-rule="evenodd" d="M114.802 35.2896C114.097 35.4622 113.038 35.3932 112.173 35.3932C112.208 28.9566 112.173 35.3932 112.208 28.9566C114.28 28.8039 115.553 28.8342 115.772 30.8716C115.934 32.3699 116.12 34.8417 114.802 35.2896ZM119.151 31.4845V33.5398C119.095 34.4258 118.965 35.2436 118.761 35.813C118.213 37.3454 116.949 38.0755 115.43 38.3456C114.51 38.5093 109.699 38.4882 108.848 38.4269L108.836 17.2921C110.667 17.2921 112.581 17.2367 114.401 17.2887C116.102 17.3374 117.383 17.9707 118.097 19.054C118.726 20.0096 119.029 22.0632 118.791 23.708C118.306 27.0725 117.156 26.443 116.926 27.3033C117.703 27.4844 118.493 28.4609 118.761 29.2094C118.965 29.778 119.095 30.5969 119.151 31.4845ZM114.499 25.687C113.905 25.9662 113.038 25.8876 112.173 25.8876L112.201 20.3535C113.945 20.2284 115.232 20.1489 115.43 21.9225C115.578 23.248 115.693 25.1624 114.499 25.687Z" fill="#F8720A"/>
<path fill-rule="evenodd" clip-rule="evenodd" d="M43.9207 26.6039C43.326 26.8607 42.5504 26.7977 41.696 26.7977L41.6567 20.3329C43.7122 20.333 44.8208 20.1014 44.9208 22.3467C44.9869 23.8314 45.2272 26.1103 43.9207 26.6039ZM48.2725 24.2731C48.3624 20.9981 48.3415 17.41 43.9242 17.2887C42.0688 17.2377 40.1236 17.2922 38.2578 17.2922L38.3034 38.3879L41.696 38.4233L41.6583 29.8402C44.16 29.8404 44.9374 29.9968 44.9408 32.6625C44.9433 34.6354 44.7907 36.6365 45.2349 38.4402L48.6735 38.4242C47.7515 36.5073 48.8184 32.2462 47.8251 29.7699C47.4382 28.8055 46.9985 28.6441 46.2053 28.1124C47.6569 27.068 48.2224 26.0968 48.2725 24.2731Z" fill="white"/>
<path fill-rule="evenodd" clip-rule="evenodd" d="M55.7444 35.4988C55.2656 35.7161 54.3445 35.6266 53.96 35.3573C53.5306 35.0566 53.3292 34.4643 53.3134 33.7792L53.3175 25.0785C53.3175 23.893 53.1012 21.7398 53.5284 20.9325C54.0734 19.7132 56.286 19.7755 56.6285 21.3681C56.8177 22.2479 56.7082 29.9209 56.7082 31.4493C56.7082 33.263 57.0345 34.9496 55.7444 35.4988ZM50.9924 18.7077L50.8983 18.8175C50.5129 19.6927 50.0953 20.0662 49.9866 21.5392C49.8443 23.4658 49.9556 30.4204 49.9537 32.6628C49.9505 36.5212 51.2697 38.6605 54.9367 38.6992C56.2903 38.7134 56.9283 38.4536 57.9338 37.9924L58.0703 37.9197C60.1759 36.53 60.0928 33.9814 60.0928 31.5504C60.0928 28.7527 60.092 25.9549 60.0928 23.1572C60.0933 21.7011 60.0067 20.5903 59.5219 19.582C58.8081 18.0978 57.3692 17.125 55.7484 17.0858C53.9825 17.0431 51.9722 17.2341 50.9924 18.7077Z" fill="white"/>
<path fill-rule="evenodd" clip-rule="evenodd" d="M101.665 21.8314C103.144 31.734 101.665 21.8314 103.144 31.734L100.037 31.7536C101.665 21.8314 100.037 31.7536 101.665 21.8314ZM95.9141 38.4189L99.0258 38.4227C99.0259 37.403 99.3793 35.7221 99.5632 34.62C100.093 34.609 103.42 34.4728 103.606 34.7553C103.662 34.8419 104.13 38.0759 104.179 38.4442L107.52 38.4213C104.183 17.2921 107.52 38.4213 104.183 17.2921H99.2281C95.9141 38.4189 99.2281 17.2921 95.9141 38.4189Z" fill="#F8720A"/>
<path fill-rule="evenodd" clip-rule="evenodd" d="M6.98152 10.1026C6.19982 9.0733 6.65726 7.57295 7.36502 6.83033C9.36897 4.72767 13.2988 4.58218 16.052 5.31086C16.5636 5.44627 17.2105 5.7394 17.5675 5.81098C16.8348 5.86262 15.1606 5.47909 14.0795 5.48971C11.124 5.51872 7.31257 6.61237 6.98152 10.1026ZM4.98398 8.19104C4.78902 9.85127 5.1642 11.1143 6.03426 12.0906C6.76868 12.9147 7.85658 13.7153 8.92081 14.3632C9.41717 14.6654 10.0505 14.9751 10.5665 15.2515C13.9197 17.0476 19.3991 19.9603 21.9132 22.1036C22.8704 22.9198 23.6943 23.5949 24.3772 24.797C25.5207 26.8099 25.1509 27.9014 25.8136 29.2247C25.8136 27.8088 26.0936 27.3675 25.7556 25.5411C25.1692 22.3714 23.091 20.3311 20.535 18.6269C18.7936 17.4659 13.9333 15.221 12.942 14.1862C11.7483 12.9401 11.929 12.2917 11.9628 11.3258C12.4437 9.49343 14.4803 8.57949 16.8272 8.98764C19.3857 9.43265 20.1313 10.3959 21.6675 11.44L22.1731 10.7533C23.1286 8.58513 22.3577 7.37547 20.4121 5.90705C19.0476 4.87718 16.7829 4.07556 15.0512 3.78479C12.2605 3.31611 9.58319 3.56043 7.38775 4.93382C6.22934 5.65847 5.29153 6.81637 4.98398 8.19104Z" fill="white"/>
<path fill-rule="evenodd" clip-rule="evenodd" d="M73.5796 18.7077C73.149 19.6075 72.8953 19.8775 72.7017 21.0963C72.2391 24.0097 73.3104 26.0313 75.136 27.9349C76.1919 29.036 77.3648 29.8225 78.2398 31.1045C78.7092 31.7923 79.0487 32.3113 79.1014 33.371C79.1548 34.4444 78.907 35.1773 78.0938 35.4911C77.1021 35.7368 76.3312 35.5658 75.9298 34.8268C75.6018 34.223 75.6669 32.9705 75.6669 32.0561H72.532L72.5313 32.7639C72.5286 35.2878 73.0232 37.0046 74.582 37.9924C75.3238 38.4625 76.4264 38.7017 77.4872 38.7013C78.8488 38.7008 79.3963 38.4244 80.4197 38.0005C82.6572 36.406 82.887 32.99 81.9969 30.7822C81.3982 29.2968 80.7851 28.8512 80.0308 27.8945C79.5951 27.3419 76.7846 25.2082 76.2314 23.6039C75.9025 22.6503 75.8259 21.7608 76.2384 20.8313C76.6118 20.0969 77.8418 19.8247 78.6294 20.3966C79.3085 20.8898 79.2324 21.9594 79.2522 23.0467L81.6332 23.0562L82.4422 23.056C82.4422 20.2293 81.8589 18.3147 79.8444 17.4628C78.0649 16.7103 75.0578 16.8738 73.6935 18.5473C73.5796 18.687 73.6438 18.577 73.5796 18.7077Z" fill="#F8720A"/>
<path fill-rule="evenodd" clip-rule="evenodd" d="M60.6346 17.9999C61.5229 21.1167 62.4902 24.2929 63.4257 27.416C63.8147 28.7149 64.637 30.9172 64.6305 32.2566C64.6206 34.3183 64.6292 36.382 64.6292 38.4439L67.1776 38.4449L67.9865 38.424C67.9866 36.3377 67.9997 34.2443 67.9853 32.1558C67.9762 30.8555 68.9126 28.4027 69.2798 27.0795C69.4742 26.3792 72.0837 17.8809 72.1327 17.292H68.8967C68.8873 17.7154 68.8355 17.6231 68.7807 17.9998L66.4081 26.8132L66.1669 25.5841L63.9417 17.292H60.4023C60.4697 17.5812 60.5283 17.7164 60.6346 17.9999Z" fill="white"/>
<path fill-rule="evenodd" clip-rule="evenodd" d="M26.8164 20.3327H30.2805L30.2741 38.4349L33.6047 38.4196L33.6154 20.333L37.1443 20.3237V17.2921H26.8296L26.8164 20.3327Z" fill="white"/>
<path fill-rule="evenodd" clip-rule="evenodd" d="M76.9805 41.9663C76.5706 42.0004 75.8817 42.3486 75.2442 42.5304C73.4569 43.0403 71.2986 43.5693 69.3962 43.6854C67.9119 43.776 66.5865 43.8796 64.9454 43.889L56.3208 43.2102L48.1164 42.1112C44.2645 41.5435 34.8506 40.1255 31.3734 40.1462C30.4919 40.1515 30.0317 40.0414 29.1492 40.0446L22.2724 40.146C19.0844 40.1421 14.8536 40.6406 11.6096 41.1125C10.8907 41.2171 10.1662 41.3596 9.42969 41.3596C12.4507 41.3309 15.4196 41.3596 18.4297 41.3596C19.9699 41.3596 21.4689 41.4397 22.8845 41.5565C23.6178 41.617 25.1734 41.6043 26.1428 41.7364C26.5408 41.7907 26.9209 41.7354 27.3138 41.7789C29.5267 42.0237 33.9808 42.2421 35.8813 42.5148C37.5881 42.7596 40.3548 42.9142 42.2227 43.1509L48.5611 43.79C51.0442 43.9565 54.2331 44.3836 57.0514 44.6032L63.6321 45C66.761 45 66.8941 44.9803 69.9777 44.3681C71.2428 44.1169 72.4407 43.7799 73.6802 43.4189C74.1679 43.2768 76.6904 42.3622 76.9805 41.9663Z" fill="#F8720A"/>
<path fill-rule="evenodd" clip-rule="evenodd" d="M11.857 0.122835L11.8555 0.20226C14.71 0.20226 18.6252 0.932085 21.0369 2.24554C21.3547 2.41866 21.6536 2.55782 21.9492 2.74897C23.1038 3.49548 23.3279 3.71518 24.3806 4.56471C24.7094 4.83005 24.8252 4.92666 25.1272 5.23394C25.4267 5.53866 25.6054 5.6215 25.8896 5.8872C26.3309 6.29967 26.7159 7.11763 27.3274 7.2809C27.4062 6.98585 27.664 6.72641 27.8564 6.49524C28.094 6.20962 28.2692 5.98529 28.4398 5.6629C26.0213 4.04343 25.11 3.14936 22.0835 1.9068C20.3333 1.18816 16.9936 0.124728 14.6928 0H13.8779L11.857 0.122835Z" fill="#F8720A"/>
<path fill-rule="evenodd" clip-rule="evenodd" d="M58.0742 37.9199L57.9375 37.9927C58.1046 38.0293 58.0742 38.0739 58.0742 37.9199Z" fill="white"/>
<path fill-rule="evenodd" clip-rule="evenodd" d="M50.9962 18.7079C50.8568 18.7079 50.8919 18.6746 50.9021 18.8178L50.9962 18.7079Z" fill="white"/>
</svg>
