<svg width="151" height="57" viewBox="0 0 151 57" fill="none" xmlns="http://www.w3.org/2000/svg">
<path fill-rule="evenodd" clip-rule="evenodd" d="M106.482 48.6759C107.738 48.7589 109.058 48.674 110.311 48.674L110.314 29.686C114.893 46.3982 110.314 29.686 114.893 46.3982C115.689 49.2566 114.71 48.6963 118.894 48.7041L119.918 48.6692L119.918 21.9032H116.076L116.005 37.5594C111.849 21.9032 116.005 37.5594 111.849 21.9032H106.469L106.482 48.6759Z" fill="#F8720A"/>
<path fill-rule="evenodd" clip-rule="evenodd" d="M9.68995 45.6615C11.2017 45.7505 12.4982 46.2125 14.3815 46.1557C15.9307 46.109 17.3832 45.8255 18.7061 45.3151C21.6998 44.16 22.7482 42.876 24.4126 40.6423C24.6114 42.0084 23.2614 43.6582 22.6515 44.1318C20.2544 45.9933 17.3201 46.7499 14.1223 46.6131C11.45 46.4988 10.8114 45.8725 9.68995 45.6615ZM2.61311 22.9082C5.26043 27.6324 11.6763 29.1085 16.3311 32.3766C16.8479 32.7394 17.1223 32.9877 17.5847 33.4275C18.9117 34.6896 19.4698 37.0635 18.4798 38.4283C18.1082 39.1257 17.8166 39.5617 17.0747 40.0958C14.8981 41.6627 11.7331 41.1229 9.56699 40.2946C8.13128 39.7455 6.7829 38.9 5.70008 38.0131C4.83693 37.3062 3.08753 35.768 2.59658 34.8402C1.37828 35.4849 0.293541 36.3056 0.00557685 37.9144C-0.212807 42.5121 6.0297 46.3912 10.4408 47.2333C14.7439 48.0548 21.0713 47.9505 24.1577 44.4884C24.4918 44.1136 24.9372 43.4023 25.2686 43.0642C26.1638 41.8814 26.3582 39.377 26.2928 37.9152C26.1523 34.776 22.7782 32.318 20.3139 30.9566L15.1073 28.0936C14.6788 27.8636 14.4211 27.7574 14.0214 27.5144C11.5835 26.0322 8.14344 24.5556 5.88643 22.7122C4.74153 21.7772 3.5537 20.7386 2.56439 19.6297C2.14894 19.1641 1.52714 17.925 1.18758 17.6762C1.18758 19.341 1.81152 21.4778 2.61311 22.9082Z" fill="#F8720A"/>
<path fill-rule="evenodd" clip-rule="evenodd" d="M145.409 44.7002C144.516 44.9189 143.174 44.8314 142.079 44.8314C142.123 36.6784 142.079 44.8314 142.123 36.6784C144.747 36.485 146.359 36.5234 146.638 39.104C146.842 41.0019 147.078 44.1329 145.409 44.7002ZM150.917 39.8804V42.4838C150.846 43.606 150.682 44.642 150.424 45.3631C149.729 47.3042 148.128 48.229 146.205 48.5711C145.039 48.7784 138.944 48.7517 137.866 48.6741L137.852 21.9034C140.17 21.9034 142.596 21.8332 144.901 21.8991C147.055 21.9607 148.678 22.7629 149.582 24.1351C150.379 25.3455 150.762 27.9468 150.462 30.0301C149.847 34.2919 148.39 33.4945 148.099 34.5842C149.083 34.8136 150.084 36.0504 150.424 36.9986C150.682 37.7188 150.846 38.7561 150.917 39.8804ZM145.025 32.5369C144.273 32.8906 143.174 32.791 142.079 32.791L142.114 25.7811C144.323 25.6226 145.953 25.522 146.204 27.7685C146.392 29.4475 146.537 31.8723 145.025 32.5369Z" fill="#F8720A"/>
<path fill-rule="evenodd" clip-rule="evenodd" d="M55.634 33.6984C54.8807 34.0236 53.8982 33.9438 52.816 33.9438L52.7661 25.7551C55.3698 25.7552 56.7741 25.4618 56.9007 28.3058C56.9845 30.1865 57.2888 33.0731 55.634 33.6984ZM61.1462 30.746C61.2601 26.5976 61.2337 22.0527 55.6383 21.8991C53.2882 21.8345 50.8242 21.9034 48.4609 21.9034L48.5187 48.6248L52.8159 48.6696L52.7682 37.7976C55.9371 37.7978 56.9217 37.996 56.926 41.3725C56.9293 43.8715 56.736 46.4063 57.2986 48.691L61.6542 48.6707C60.4863 46.2426 61.8377 40.8453 60.5795 37.7085C60.0894 36.487 59.5324 36.2826 58.5277 35.609C60.3665 34.2862 61.0828 33.056 61.1462 30.746Z" fill="#121111"/>
<path fill-rule="evenodd" clip-rule="evenodd" d="M70.6117 44.9652C70.0052 45.2405 68.8384 45.127 68.3514 44.786C67.8075 44.405 67.5525 43.6549 67.5324 42.787L67.5376 31.7661C67.5376 30.2645 67.2636 27.5371 67.8048 26.5145C68.4951 24.9701 71.2977 25.049 71.7315 27.0663C71.9712 28.1807 71.8325 37.8998 71.8325 39.8358C71.8325 42.1332 72.2457 44.2695 70.6117 44.9652ZM64.5924 23.6965L64.4733 23.8355C63.9851 24.9442 63.4562 25.4172 63.3184 27.283C63.1382 29.7234 63.2792 38.5325 63.2768 41.3729C63.2727 46.2603 64.9437 48.97 69.5885 49.019C71.3031 49.0371 72.1113 48.708 73.3849 48.1238L73.5578 48.0316C76.2249 46.2713 76.1196 43.0431 76.1196 39.9639C76.1196 36.4201 76.1186 32.8763 76.1196 29.3325C76.1203 27.4881 76.0106 26.081 75.3964 24.8039C74.4924 22.9239 72.6698 21.6917 70.6167 21.642C68.3799 21.5879 65.8335 21.8298 64.5924 23.6965Z" fill="#121111"/>
<path fill-rule="evenodd" clip-rule="evenodd" d="M128.777 27.6532C130.65 40.1964 128.777 27.6532 130.65 40.1964L126.715 40.2212C128.777 27.6532 126.715 40.2212 128.777 27.6532ZM121.492 48.6639L125.434 48.6687C125.434 47.3772 125.882 45.2481 126.114 43.852C126.786 43.8381 131 43.6656 131.235 44.0234C131.307 44.1331 131.899 48.2295 131.961 48.696L136.193 48.667C131.966 21.9033 136.193 48.667 131.966 21.9033H125.69C121.492 48.6639 125.69 21.9033 121.492 48.6639Z" fill="#F8720A"/>
<path fill-rule="evenodd" clip-rule="evenodd" d="M8.84013 12.7967C7.84998 11.4929 8.4294 9.59243 9.32591 8.65177C11.8642 5.98841 16.842 5.80412 20.3295 6.72711C20.9774 6.89862 21.7968 7.26992 22.249 7.36059C21.3209 7.426 19.2003 6.9402 17.8309 6.95365C14.0873 6.9904 9.25946 8.37569 8.84013 12.7967ZM6.30991 10.3753C6.06296 12.4783 6.53819 14.0781 7.64027 15.3148C8.57054 16.3587 9.94855 17.3728 11.2966 18.1934C11.9253 18.5761 12.7275 18.9685 13.3811 19.3186C17.6285 21.5937 24.569 25.283 27.7535 27.998C28.9661 29.0318 30.0097 29.8869 30.8747 31.4096C32.3232 33.9592 31.8547 35.3418 32.6941 37.018C32.6941 35.2244 33.0487 34.6655 32.6207 32.352C31.8779 28.3371 29.2454 25.7527 26.0079 23.5941C23.8022 22.1235 17.6457 19.28 16.39 17.9692C14.878 16.3908 15.1069 15.5696 15.1498 14.3461C15.7589 12.025 18.3385 10.8674 21.3113 11.3844C24.5521 11.948 25.4966 13.1682 27.4423 14.4907L28.0828 13.6209C29.2931 10.8745 28.3166 9.34228 25.8522 7.48228C24.1238 6.17777 21.2552 5.1624 19.0618 4.79408C15.5268 4.20043 12.1356 4.5099 9.35469 6.24953C7.88738 7.16741 6.69948 8.63408 6.30991 10.3753Z" fill="#121111"/>
<path fill-rule="evenodd" clip-rule="evenodd" d="M93.2029 23.6965C92.6575 24.8362 92.3361 25.1782 92.0909 26.7219C91.5049 30.4123 92.8619 32.973 95.1743 35.3843C96.5118 36.7789 97.9975 37.7752 99.1058 39.399C99.7004 40.2703 100.13 40.9277 100.197 42.2699C100.265 43.6296 99.9509 44.558 98.921 44.9554C97.6648 45.2667 96.6882 45.05 96.1798 44.114C95.7643 43.3492 95.8468 41.7626 95.8468 40.6044H91.876L91.875 41.501C91.8716 44.6979 92.4981 46.8725 94.4726 48.1237C95.4122 48.7192 96.8088 49.0222 98.1525 49.0217C99.8772 49.021 100.571 48.6709 101.867 48.134C104.701 46.1143 104.992 41.7874 103.865 38.9908C103.106 37.1093 102.33 36.5448 101.374 35.333C100.823 34.6331 97.2626 31.9304 96.5618 29.8983C96.1453 28.6903 96.0483 27.5637 96.5708 26.3864C97.0437 25.456 98.6017 25.1113 99.5993 25.8357C100.459 26.4604 100.363 27.8152 100.388 29.1925L103.404 29.2045L104.429 29.2043C104.429 25.6238 103.69 23.1986 101.138 22.1196C98.8843 21.1664 95.0753 21.3735 93.3472 23.4933C93.2029 23.6702 93.2843 23.5308 93.2029 23.6965Z" fill="#F8720A"/>
<path fill-rule="evenodd" clip-rule="evenodd" d="M76.8059 22.7999C77.9311 26.7478 79.1563 30.7711 80.3412 34.7269C80.834 36.3722 81.8756 39.1618 81.8674 40.8584C81.8548 43.4698 81.8658 46.0839 81.8658 48.6956L85.0937 48.6968L86.1184 48.6704C86.1184 46.0277 86.135 43.3762 86.1167 40.7306C86.1053 39.0836 87.2914 35.9768 87.7565 34.3007C88.0027 33.4136 91.3081 22.6491 91.3702 21.9032H87.2713C87.2594 22.4395 87.1937 22.3227 87.1243 22.7998L84.119 33.9634L83.8134 32.4065L80.9949 21.9032H76.5117C76.5971 22.2695 76.6712 22.4408 76.8059 22.7999Z" fill="#121111"/>
<path fill-rule="evenodd" clip-rule="evenodd" d="M33.9727 25.7548H38.3605L38.3524 48.6842L42.5711 48.6648L42.5847 25.7552L47.0546 25.7434V21.9033H33.9894L33.9727 25.7548Z" fill="#121111"/>
<path fill-rule="evenodd" clip-rule="evenodd" d="M97.5097 53.1573C96.9905 53.2005 96.1179 53.6416 95.3104 53.8719C93.0465 54.5178 90.3126 55.1879 87.9029 55.3348C86.0228 55.4496 84.3439 55.5809 82.2652 55.5927L71.3407 54.7329L60.9485 53.3409C56.0694 52.6218 44.1452 50.8257 39.7407 50.8519C38.6242 50.8586 38.0411 50.7191 36.9233 50.7232L28.2127 50.8516C24.1746 50.8467 18.8155 51.4781 14.7065 52.0758C13.796 52.2083 12.8783 52.3888 11.9453 52.3888C15.7719 52.3525 19.5325 52.3888 23.3453 52.3888C25.2962 52.3888 27.195 52.4904 28.988 52.6382C29.9169 52.7148 31.8874 52.6988 33.1152 52.8661C33.6195 52.9349 34.1009 52.8648 34.5985 52.9199C37.4016 53.23 43.0434 53.5067 45.4507 53.8521C47.6126 54.1622 51.1171 54.358 53.4831 54.6579L61.5118 55.4674C64.6571 55.6782 68.6963 56.2192 72.2662 56.4974L80.6017 57C84.565 57 84.7336 56.975 88.6395 56.1995C90.242 55.8814 91.7593 55.4545 93.3293 54.9972C93.9471 54.8173 97.1422 53.6588 97.5097 53.1573Z" fill="#F8720A"/>
<path fill-rule="evenodd" clip-rule="evenodd" d="M15.0137 0.155591L15.0117 0.256196C18.6275 0.256196 23.5867 1.18064 26.6415 2.84435C27.0441 3.06364 27.4226 3.23991 27.7971 3.48204C29.2596 4.42761 29.5435 4.7059 30.8769 5.78197C31.2934 6.11807 31.44 6.24044 31.8226 6.62966C32.202 7.01564 32.4283 7.12057 32.7883 7.45712C33.3473 7.97958 33.835 9.01567 34.6095 9.22247C34.7093 8.84875 35.0359 8.52012 35.2796 8.2273C35.5806 7.86552 35.8024 7.58137 36.0185 7.17301C32.9551 5.12167 31.8008 3.98919 27.9673 2.41528C25.7503 1.505 21.5201 0.157989 18.6057 0H17.5735L15.0137 0.155591Z" fill="#F8720A"/>
<path fill-rule="evenodd" clip-rule="evenodd" d="M73.5637 48.0318L73.3906 48.1241C73.6023 48.1704 73.5637 48.227 73.5637 48.0318Z" fill="#121111"/>
<path fill-rule="evenodd" clip-rule="evenodd" d="M64.6025 23.6968C64.426 23.6968 64.4703 23.6546 64.4832 23.8359L64.6025 23.6968Z" fill="#121111"/>
</svg>
