<svg width="115" height="20" viewBox="0 0 115 20" fill="none" xmlns="http://www.w3.org/2000/svg">
<g clip-path="url(#clip0_226_2354)">
<path d="M2.66156 14.2356C1.53012 13.09 0.964844 11.6777 0.964844 9.99958C0.964844 8.32147 1.53012 6.91005 2.66156 5.76355C3.79212 4.61793 5.1743 4.04468 6.80722 4.04468C8.44015 4.04468 9.82233 4.61793 10.9529 5.76355C12.0834 6.90916 12.6496 8.32147 12.6496 9.99958V10.7864H3.3243C3.50416 11.73 3.91616 12.4716 4.56029 13.0111C5.20442 13.5507 5.95399 13.8201 6.80722 13.8201C7.85538 13.8201 8.69443 13.5578 9.32439 13.0333C9.6088 12.8233 9.856 12.561 10.066 12.2465H12.538C12.2234 12.981 11.8265 13.603 11.3472 14.1116C10.1183 15.3405 8.60583 15.9545 6.80811 15.9545C5.17518 15.9545 3.793 15.3812 2.66245 14.2356H2.66156ZM3.43682 8.87611H10.1785C10.0438 8.12743 9.68766 7.49039 9.11086 6.96587C8.53406 6.44135 7.76589 6.17909 6.80722 6.17909C5.99829 6.17909 5.27885 6.42274 4.64978 6.90916C4.02071 7.39647 3.6158 8.05212 3.43594 8.87523L3.43682 8.87611Z" fill="#CCCCCC"/>
<path d="M13.5488 4.26978H16.0208L18.4928 13.596H19.9538L22.4258 4.26978H24.8978L21.7515 15.7304H16.6951L13.5488 4.26978Z" fill="#CCCCCC"/>
<path d="M27.4936 14.2356C26.3622 13.09 25.7969 11.6777 25.7969 9.99958C25.7969 8.32147 26.3622 6.91005 27.4936 5.76355C28.6241 4.61793 30.0063 4.04468 31.6393 4.04468C33.2722 4.04468 34.6544 4.61793 35.7849 5.76355C36.9155 6.90916 37.4816 8.32147 37.4816 9.99958V10.7864H28.1554C28.3353 11.73 28.7473 12.4716 29.3914 13.0111C30.0356 13.5507 30.7851 13.8201 31.6384 13.8201C32.6865 13.8201 33.5256 13.5578 34.1555 13.0333C34.4399 12.8233 34.6871 12.561 34.8971 12.2465H37.3691C37.0546 12.981 36.6576 13.603 36.1783 14.1116C34.9494 15.3405 33.437 15.9545 31.6393 15.9545C30.0063 15.9545 28.6241 15.3812 27.4936 14.2356ZM28.2689 8.87611H35.0105C34.8759 8.12743 34.5197 7.49039 33.9429 6.96587C33.3661 6.44135 32.5979 6.17909 31.6393 6.17909C30.8303 6.17909 30.1109 6.42274 29.4818 6.90916C28.8527 7.39647 28.4478 8.05212 28.268 8.87523L28.2689 8.87611Z" fill="#CCCCCC"/>
<path d="M39.5039 15.7303V4.26975H41.8634V5.95495H41.9759C42.1407 5.64041 42.3808 5.34094 42.6953 5.05565C43.3838 4.4567 44.1936 4.15723 45.1221 4.15723H46.4706V6.40416H45.0096C44.0952 6.40416 43.343 6.693 42.7511 7.26891C42.1593 7.8457 41.8634 8.6059 41.8634 9.54951V15.7295H39.5039V15.7303Z" fill="#CCCCCC"/>
<path d="M47.1445 4.26978H49.6165L52.0885 13.4834H53.3245L56.0215 4.26978H58.4935L53.7746 20.0001H51.3026L52.6511 15.7304H50.2917L47.1454 4.26978H47.1445Z" fill="#CCCCCC"/>
<path d="M67.8047 6.40415L69.4075 4.26885H70.756V1.79688H73.1155V4.26885H76.5984V6.40415H73.1155V13.595H76.7109V15.7294H70.756V6.40326H67.8047V6.40415Z" fill="#CCCCCC"/>
<path d="M79.7573 14.2356C78.6258 13.09 78.0605 11.6777 78.0605 9.99958C78.0605 8.32147 78.6258 6.91005 79.7573 5.76355C80.8887 4.61793 82.27 4.04468 83.9029 4.04468C85.5359 4.04468 86.918 4.61793 88.0486 5.76355C89.18 6.90916 89.7453 8.32147 89.7453 9.99958V10.7864H80.4191C80.599 11.73 81.011 12.4716 81.6551 13.0111C82.2992 13.5507 83.0479 13.8201 83.902 13.8201C84.9502 13.8201 85.7892 13.5578 86.4192 13.0333C86.7036 12.8233 86.9508 12.561 87.1608 12.2465H89.6328C89.3182 12.981 88.9213 13.603 88.442 14.1116C87.2131 15.3405 85.7006 15.9545 83.9029 15.9545C82.27 15.9545 80.8878 15.3812 79.7573 14.2356ZM80.5325 8.87611H87.2742C87.1395 8.12743 86.7834 7.49039 86.2066 6.96587C85.6298 6.44135 84.8616 6.17909 83.9029 6.17909C83.094 6.17909 82.3745 6.42274 81.7455 6.90916C81.1164 7.39647 80.7115 8.05212 80.5316 8.87523L80.5325 8.87611Z" fill="#CCCCCC"/>
<path d="M92.7338 14.2703C91.6404 13.1468 91.0938 11.7239 91.0938 10.0006C91.0938 8.27726 91.6404 6.85432 92.7338 5.73085C93.8271 4.60739 95.1907 4.04565 96.8236 4.04565C98.6515 4.04565 100.142 4.74206 101.295 6.13576C101.79 6.77989 102.134 7.46921 102.329 8.20283H99.8573C99.7528 7.82894 99.5578 7.49136 99.2734 7.19189C98.6896 6.51763 97.8726 6.18095 96.8236 6.18095C95.8942 6.18095 95.1198 6.5327 94.4978 7.23708C93.8758 7.94146 93.5648 8.86291 93.5648 10.0014C93.5648 11.14 93.8758 12.0614 94.4978 12.7658C95.1198 13.4702 95.8942 13.8219 96.8236 13.8219C97.9028 13.8219 98.7489 13.4852 99.3629 12.811C99.6323 12.5115 99.8352 12.1748 99.9698 11.8001H102.329C102.134 12.5638 101.79 13.2611 101.295 13.8902C100.157 15.2688 98.6665 15.9572 96.8236 15.9572C95.1907 15.9572 93.8271 15.3955 92.7338 14.272V14.2703Z" fill="#CCCCCC"/>
<path d="M104.238 15.7303V0H106.598V5.84238H106.71C106.89 5.54291 107.167 5.24343 107.542 4.94396C108.351 4.34501 109.273 4.04466 110.306 4.04466C111.729 4.04466 112.834 4.45665 113.62 5.28064C114.407 6.10464 114.8 7.30342 114.8 8.87609V15.7303H112.44V9.10114C112.44 8.09728 112.219 7.36012 111.777 6.88787C111.335 6.41563 110.657 6.17995 109.744 6.17995C108.83 6.17995 108.077 6.49094 107.486 7.11292C106.894 7.7349 106.598 8.54738 106.598 9.55123V15.7312H104.238V15.7303Z" fill="#CCCCCC"/>
<path d="M67.2502 4.26978H69.7221L65.0032 20.0001H62.5312L67.2502 4.26978Z" fill="#CCCCCC"/>
<path d="M61.6349 4.26978H64.1069L59.388 20.0001H56.916L61.6349 4.26978Z" fill="#CCCCCC"/>
</g>
<defs>
<clipPath id="clip0_226_2354">
<rect width="113.836" height="20" fill="white" transform="translate(0.964844)"/>
</clipPath>
</defs>
</svg>
